<svg width="436" height="494" viewBox="0 0 436 494" fill="none" xmlns="http://www.w3.org/2000/svg">
<path d="M156.363 276.21L178.019 203.196L207.891 221.849L156.363 276.21Z" fill="black" fill-opacity="0.5" stroke="black" stroke-opacity="0.35"/>
<path d="M431.019 23.3024L49.2253 124.069L121.704 182.288M431.019 23.3024L259.98 243.254L211.341 220.968M431.019 23.3024L176.643 199.514M211.341 220.968L155.808 280.644L154.109 275.032M211.341 220.968L176.643 199.514M127.426 186.885L152.41 269.419M127.426 186.885L229.056 125.115L121.704 182.288M127.426 186.885L121.704 182.288M152.41 269.419L176.643 199.514M152.41 269.419L154.109 275.032M176.643 199.514L154.109 275.032" stroke="black" stroke-opacity="0.19" stroke-width="3.6603"/>
<path d="M142.138 286.178C142.138 286.178 105.841 301.637 100.569 304.007C95.2966 306.377 81.4292 315.495 80.3973 322.977C79.3654 330.458 78.7013 332.228 86.3954 339.25C94.0895 346.272 106.768 348.807 120.756 349.536C137.441 350.406 160.213 345.938 162.373 339.619C164.533 333.3 165.437 329.385 160.447 325.88C155.457 322.376 139.445 321.708 126.133 323.506C113.498 325.212 106.855 328.789 95.2156 333.993C78.4088 341.508 67.6462 345.325 55.1634 358.857C47.8313 366.806 41.7798 371.269 39.8108 381.902C38.3478 389.803 39.2474 394.85 42.1457 402.344C48.0828 417.696 60.4423 421.456 75.4926 428.121C87.9198 433.624 109.468 435.659 109.468 435.659M109.468 435.659C109.468 435.659 114.302 422.991 120.796 417.991C128.33 412.191 134.828 412.486 144.059 410.212C154.668 407.598 171.618 405.564 171.618 405.564C182.43 404.413 205.677 402.335 212.174 403.226C218.67 404.118 224.859 407.024 220.003 417.416L214.439 423.899L209.737 427.505M109.468 435.659C109.468 435.659 106.184 444.334 107.708 449.61C109.102 454.439 115.514 459.844 115.514 459.844C115.514 459.844 133.548 468.452 145.103 473.967M209.737 427.505C186.619 434.565 198.645 431.832 174.747 435.457C150.849 439.083 131.975 437.132 131.975 437.132C131.975 437.132 179.369 431.264 209.737 427.505ZM145.103 473.967C162.233 476.528 171.837 477.966 188.966 480.526C188.992 480.53 189.031 480.535 189.031 480.535M145.103 473.967C167.495 477.614 189.031 480.535 189.031 480.535M189.031 480.535L215.947 479.38M43.2616 342.133C43.2616 342.133 30.2075 351.778 24.5601 360.226C19.064 368.448 15.7039 373.85 15.1112 383.722C14.6447 391.492 15.8938 396.114 18.9161 403.287C22.9627 412.892 35.6368 424.087 35.6368 424.087" stroke="black" stroke-opacity="0.34" stroke-width="2.20886"/>
</svg>
