<svg width="30" height="33" viewBox="0 0 30 33" fill="none" xmlns="http://www.w3.org/2000/svg">
<g filter="url(#filter0_d_253_315)">
<path fill-rule="evenodd" clip-rule="evenodd" d="M11.2269 3.76233L4.70361 14.7959C4.31498 15.4532 4.53281 16.3011 5.19013 16.6897L15.5051 22.7881C16.1624 23.1768 17.0103 22.9589 17.3989 22.3016L25.3737 8.81284C25.7624 8.15552 25.5445 7.30761 24.8872 6.91899L16.0268 1.68054L11.2269 3.76233Z" fill="#4031F4"/>
<path fill-rule="evenodd" clip-rule="evenodd" d="M11.2206 3.77302L12.6263 4.69594C13.1965 5.0703 13.9622 4.91156 14.3365 4.34138L16.067 1.70571L11.2206 3.77302Z" fill="black" fill-opacity="0.54"/>
<path fill-rule="evenodd" clip-rule="evenodd" d="M6.17827 6.53294L7.86738 6.33022L5.32142 10.9012L6.84872 23.6273C6.93971 24.3855 7.62809 24.9263 8.38626 24.8353L20.2837 23.4075C21.0419 23.3165 21.5827 22.6281 21.4918 21.8699L19.6246 6.31171C19.5336 5.55354 18.8452 5.01269 18.087 5.10368L6.18956 6.53154C6.18579 6.53199 6.18202 6.53246 6.17827 6.53294Z" fill="#FFD400"/>
<path fill-rule="evenodd" clip-rule="evenodd" d="M5.32295 10.9131L7.00001 10.7915C7.68032 10.7421 8.19181 10.1507 8.14247 9.47035L7.91441 6.32575L5.32295 10.9131Z" fill="black" fill-opacity="0.54"/>
<ellipse cx="7.53396" cy="11.9448" rx="0.302785" ry="0.260212" transform="rotate(-6.73232 7.53396 11.9448)" fill="#02010A" fill-opacity="0.34"/>
<ellipse cx="9.03738" cy="11.7674" rx="0.302785" ry="0.260212" transform="rotate(-6.73232 9.03738 11.7674)" fill="#02010A" fill-opacity="0.34"/>
<ellipse cx="7.68643" cy="13.2368" rx="0.302785" ry="0.260212" transform="rotate(-6.73232 7.68643 13.2368)" fill="#02010A" fill-opacity="0.34"/>
<ellipse cx="9.18997" cy="13.0593" rx="0.302785" ry="0.260212" transform="rotate(-6.73232 9.18997 13.0593)" fill="#02010A" fill-opacity="0.34"/>
<ellipse cx="10.5409" cy="11.5899" rx="0.302785" ry="0.260212" transform="rotate(-6.73232 10.5409 11.5899)" fill="#02010A" fill-opacity="0.34"/>
<ellipse cx="12.0445" cy="11.4124" rx="0.302785" ry="0.260212" transform="rotate(-6.73232 12.0445 11.4124)" fill="#02010A" fill-opacity="0.34"/>
<ellipse cx="10.6934" cy="12.8819" rx="0.302785" ry="0.260212" transform="rotate(-6.73232 10.6934 12.8819)" fill="#02010A" fill-opacity="0.34"/>
<ellipse cx="12.1969" cy="12.7044" rx="0.302785" ry="0.260212" transform="rotate(-6.73232 12.1969 12.7044)" fill="#02010A" fill-opacity="0.34"/>
<ellipse cx="7.86941" cy="14.7874" rx="0.302785" ry="0.260212" transform="rotate(-6.73232 7.86941 14.7874)" fill="#02010A" fill-opacity="0.34"/>
<ellipse cx="9.37307" cy="14.6099" rx="0.302785" ry="0.260212" transform="rotate(-6.73232 9.37307 14.6099)" fill="#02010A" fill-opacity="0.34"/>
<ellipse cx="8.022" cy="16.0794" rx="0.302785" ry="0.260212" transform="rotate(-6.73232 8.022 16.0794)" fill="#02010A" fill-opacity="0.34"/>
<ellipse cx="9.52554" cy="15.9019" rx="0.302785" ry="0.260212" transform="rotate(-6.73232 9.52554 15.9019)" fill="#02010A" fill-opacity="0.34"/>
<ellipse cx="10.8764" cy="14.4324" rx="0.302785" ry="0.260212" transform="rotate(-6.73232 10.8764 14.4324)" fill="#02010A" fill-opacity="0.34"/>
<ellipse cx="12.3799" cy="14.2549" rx="0.302785" ry="0.260212" transform="rotate(-6.73232 12.3799 14.2549)" fill="#02010A" fill-opacity="0.34"/>
<ellipse cx="11.029" cy="15.7244" rx="0.302785" ry="0.260212" transform="rotate(-6.73232 11.029 15.7244)" fill="#02010A" fill-opacity="0.34"/>
<ellipse cx="12.5324" cy="15.5469" rx="0.302785" ry="0.260212" transform="rotate(-6.73232 12.5324 15.5469)" fill="#02010A" fill-opacity="0.34"/>
<ellipse cx="13.5478" cy="11.2349" rx="0.302785" ry="0.260212" transform="rotate(-6.73232 13.5478 11.2349)" fill="#02010A" fill-opacity="0.34"/>
<ellipse cx="15.0514" cy="11.0574" rx="0.302785" ry="0.260212" transform="rotate(-6.73232 15.0514 11.0574)" fill="#02010A" fill-opacity="0.34"/>
<ellipse cx="13.7003" cy="12.5269" rx="0.302785" ry="0.260212" transform="rotate(-6.73232 13.7003 12.5269)" fill="#02010A" fill-opacity="0.34"/>
<ellipse cx="15.2039" cy="12.3494" rx="0.302785" ry="0.260212" transform="rotate(-6.73232 15.2039 12.3494)" fill="#02010A" fill-opacity="0.34"/>
<ellipse cx="16.5547" cy="10.8799" rx="0.302785" ry="0.260212" transform="rotate(-6.73232 16.5547 10.8799)" fill="#02010A" fill-opacity="0.34"/>
<ellipse cx="18.0584" cy="10.7024" rx="0.302785" ry="0.260212" transform="rotate(-6.73232 18.0584 10.7024)" fill="#02010A" fill-opacity="0.34"/>
<ellipse cx="16.7073" cy="12.1719" rx="0.302785" ry="0.260212" transform="rotate(-6.73232 16.7073 12.1719)" fill="#02010A" fill-opacity="0.34"/>
<ellipse cx="18.2108" cy="11.9944" rx="0.302785" ry="0.260212" transform="rotate(-6.73232 18.2108 11.9944)" fill="#02010A" fill-opacity="0.34"/>
<ellipse cx="13.8834" cy="14.0774" rx="0.302785" ry="0.260212" transform="rotate(-6.73232 13.8834 14.0774)" fill="#02010A" fill-opacity="0.34"/>
<ellipse cx="15.3869" cy="13.8999" rx="0.302785" ry="0.260212" transform="rotate(-6.73232 15.3869 13.8999)" fill="#02010A" fill-opacity="0.34"/>
<ellipse cx="14.0359" cy="15.3694" rx="0.302785" ry="0.260212" transform="rotate(-6.73232 14.0359 15.3694)" fill="#02010A" fill-opacity="0.34"/>
<ellipse cx="15.5395" cy="15.1919" rx="0.302785" ry="0.260212" transform="rotate(-6.73232 15.5395 15.1919)" fill="#02010A" fill-opacity="0.34"/>
<ellipse cx="16.8904" cy="13.7224" rx="0.302785" ry="0.260212" transform="rotate(-6.73232 16.8904 13.7224)" fill="#02010A" fill-opacity="0.34"/>
<ellipse cx="18.3938" cy="13.5449" rx="0.302785" ry="0.260212" transform="rotate(-6.73232 18.3938 13.5449)" fill="#02010A" fill-opacity="0.34"/>
<ellipse cx="17.0429" cy="15.0147" rx="0.302785" ry="0.260212" transform="rotate(-6.73232 17.0429 15.0147)" fill="#02010A" fill-opacity="0.34"/>
<ellipse cx="18.5464" cy="14.8372" rx="0.302785" ry="0.260212" transform="rotate(-6.73232 18.5464 14.8372)" fill="#02010A" fill-opacity="0.34"/>
<ellipse cx="8.2051" cy="17.6299" rx="0.302785" ry="0.260212" transform="rotate(-6.73232 8.2051 17.6299)" fill="#02010A" fill-opacity="0.34"/>
<ellipse cx="9.70852" cy="17.4524" rx="0.302785" ry="0.260212" transform="rotate(-6.73232 9.70852 17.4524)" fill="#02010A" fill-opacity="0.34"/>
<ellipse cx="8.35757" cy="18.9221" rx="0.302785" ry="0.260212" transform="rotate(-6.73232 8.35757 18.9221)" fill="#02010A" fill-opacity="0.34"/>
<ellipse cx="9.86111" cy="18.7447" rx="0.302785" ry="0.260212" transform="rotate(-6.73232 9.86111 18.7447)" fill="#02010A" fill-opacity="0.34"/>
<ellipse cx="11.2121" cy="17.2752" rx="0.302785" ry="0.260212" transform="rotate(-6.73232 11.2121 17.2752)" fill="#02010A" fill-opacity="0.34"/>
<ellipse cx="12.7155" cy="17.0977" rx="0.302785" ry="0.260212" transform="rotate(-6.73232 12.7155 17.0977)" fill="#02010A" fill-opacity="0.34"/>
<ellipse cx="11.3645" cy="18.5672" rx="0.302785" ry="0.260212" transform="rotate(-6.73232 11.3645 18.5672)" fill="#02010A" fill-opacity="0.34"/>
<ellipse cx="12.8681" cy="18.3897" rx="0.302785" ry="0.260212" transform="rotate(-6.73232 12.8681 18.3897)" fill="#02010A" fill-opacity="0.34"/>
<ellipse cx="8.54055" cy="20.4727" rx="0.302785" ry="0.260212" transform="rotate(-6.73232 8.54055 20.4727)" fill="#02010A" fill-opacity="0.34"/>
<ellipse cx="10.0441" cy="20.2952" rx="0.302785" ry="0.260212" transform="rotate(-6.73232 10.0441 20.2952)" fill="#02010A" fill-opacity="0.34"/>
<ellipse cx="8.69302" cy="21.7647" rx="0.302785" ry="0.260212" transform="rotate(-6.73232 8.69302 21.7647)" fill="#02010A" fill-opacity="0.34"/>
<ellipse cx="10.1967" cy="21.5872" rx="0.302785" ry="0.260212" transform="rotate(-6.73232 10.1967 21.5872)" fill="#02010A" fill-opacity="0.34"/>
<ellipse cx="11.5475" cy="20.1177" rx="0.302785" ry="0.260212" transform="rotate(-6.73232 11.5475 20.1177)" fill="#02010A" fill-opacity="0.34"/>
<ellipse cx="13.0511" cy="19.9402" rx="0.302785" ry="0.260212" transform="rotate(-6.73232 13.0511 19.9402)" fill="#02010A" fill-opacity="0.34"/>
<ellipse cx="11.7001" cy="21.4097" rx="0.302785" ry="0.260212" transform="rotate(-6.73232 11.7001 21.4097)" fill="#02010A" fill-opacity="0.34"/>
<ellipse cx="13.2036" cy="21.2322" rx="0.302785" ry="0.260212" transform="rotate(-6.73232 13.2036 21.2322)" fill="#02010A" fill-opacity="0.34"/>
<ellipse cx="14.219" cy="16.9202" rx="0.302785" ry="0.260212" transform="rotate(-6.73232 14.219 16.9202)" fill="#02010A" fill-opacity="0.34"/>
<ellipse cx="15.7224" cy="16.7427" rx="0.302785" ry="0.260212" transform="rotate(-6.73232 15.7224 16.7427)" fill="#02010A" fill-opacity="0.34"/>
<ellipse cx="14.3715" cy="18.2122" rx="0.302785" ry="0.260212" transform="rotate(-6.73232 14.3715 18.2122)" fill="#02010A" fill-opacity="0.34"/>
<ellipse cx="15.875" cy="18.0347" rx="0.302785" ry="0.260212" transform="rotate(-6.73232 15.875 18.0347)" fill="#02010A" fill-opacity="0.34"/>
<ellipse cx="17.2259" cy="16.5652" rx="0.302785" ry="0.260212" transform="rotate(-6.73232 17.2259 16.5652)" fill="#02010A" fill-opacity="0.34"/>
<ellipse cx="18.7294" cy="16.3877" rx="0.302785" ry="0.260212" transform="rotate(-6.73232 18.7294 16.3877)" fill="#02010A" fill-opacity="0.34"/>
<ellipse cx="17.3784" cy="17.8572" rx="0.302785" ry="0.260212" transform="rotate(-6.73232 17.3784 17.8572)" fill="#02010A" fill-opacity="0.34"/>
<ellipse cx="18.882" cy="17.6797" rx="0.302785" ry="0.260212" transform="rotate(-6.73232 18.882 17.6797)" fill="#02010A" fill-opacity="0.34"/>
<ellipse cx="14.5545" cy="19.7627" rx="0.302785" ry="0.260212" transform="rotate(-6.73232 14.5545 19.7627)" fill="#02010A" fill-opacity="0.34"/>
<ellipse cx="16.058" cy="19.5852" rx="0.302785" ry="0.260212" transform="rotate(-6.73232 16.058 19.5852)" fill="#02010A" fill-opacity="0.34"/>
<ellipse cx="14.7071" cy="21.0547" rx="0.302785" ry="0.260212" transform="rotate(-6.73232 14.7071 21.0547)" fill="#02010A" fill-opacity="0.34"/>
<ellipse cx="16.2105" cy="20.8772" rx="0.302785" ry="0.260212" transform="rotate(-6.73232 16.2105 20.8772)" fill="#02010A" fill-opacity="0.34"/>
<ellipse cx="17.5614" cy="19.4077" rx="0.302785" ry="0.260212" transform="rotate(-6.73232 17.5614 19.4077)" fill="#02010A" fill-opacity="0.34"/>
<ellipse cx="19.065" cy="19.2302" rx="0.302785" ry="0.260212" transform="rotate(-6.73232 19.065 19.2302)" fill="#02010A" fill-opacity="0.34"/>
<ellipse cx="17.714" cy="20.6997" rx="0.302785" ry="0.260212" transform="rotate(-6.73232 17.714 20.6997)" fill="#02010A" fill-opacity="0.34"/>
<ellipse cx="19.2174" cy="20.5222" rx="0.302785" ry="0.260212" transform="rotate(-6.73232 19.2174 20.5222)" fill="#02010A" fill-opacity="0.34"/>
</g>
<defs>
<filter id="filter0_d_253_315" x="0.50772" y="0.879767" width="29.062" height="31.1713" filterUnits="userSpaceOnUse" color-interpolation-filters="sRGB">
<feFlood flood-opacity="0" result="BackgroundImageFix"/>
<feColorMatrix in="SourceAlpha" type="matrix" values="0 0 0 0 0 0 0 0 0 0 0 0 0 0 0 0 0 0 127 0" result="hardAlpha"/>
<feOffset dy="3.20261"/>
<feGaussianBlur stdDeviation="2.00163"/>
<feComposite in2="hardAlpha" operator="out"/>
<feColorMatrix type="matrix" values="0 0 0 0 0 0 0 0 0 0 0 0 0 0 0 0 0 0 0.25 0"/>
<feBlend mode="normal" in2="BackgroundImageFix" result="effect1_dropShadow_253_315"/>
<feBlend mode="normal" in="SourceGraphic" in2="effect1_dropShadow_253_315" result="shape"/>
</filter>
</defs>
</svg>
